<svg width="62" height="63" viewBox="0 0 62 63" fill="none" xmlns="http://www.w3.org/2000/svg">
<path d="M31 5.6665C16.7659 5.6665 5.16669 17.2657 5.16669 31.4998C5.16669 45.734 16.7659 57.3332 31 57.3332C45.2342 57.3332 56.8334 45.734 56.8334 31.4998C56.8334 17.2657 45.2342 5.6665 31 5.6665ZM41.4884 29.614L32.3692 38.7332C31.9817 39.1207 31.4909 39.3015 31 39.3015C30.5092 39.3015 30.0184 39.1207 29.6309 38.7332L20.5117 29.614C19.7625 28.8648 19.7625 27.6248 20.5117 26.8757C21.2609 26.1265 22.5009 26.1265 23.25 26.8757L31 34.6257L38.75 26.8757C39.4992 26.1265 40.7392 26.1265 41.4884 26.8757C42.2375 27.6248 42.2375 28.839 41.4884 29.614Z" fill="url(#paint0_linear_1414_12534)"/>
<defs>
<linearGradient id="paint0_linear_1414_12534" x1="6.7869" y1="53.8887" x2="60.4611" y2="41.4793" gradientUnits="userSpaceOnUse">
<stop stop-color="#4CFFFF" stop-opacity="0.56"/>
<stop offset="0.313252" stop-color="#80FEE3"/>
<stop offset="0.436887" stop-color="#95FED8"/>
<stop offset="1" stop-color="#00FFA3"/>
</linearGradient>
</defs>
</svg>
