<svg width="1960" height="2345" viewBox="0 0 1960 2345" fill="none" xmlns="http://www.w3.org/2000/svg">
<path d="M1102.41 865.101C1088.99 871.112 1072.19 861.28 1072.31 847.48L1074.5 581.945C1074.55 575.634 1078.35 570.073 1084.49 567.324L1319.98 461.849C1326.02 459.146 1333.44 459.555 1339.57 462.928L1470.33 534.804C1473.58 536.591 1476.28 539.109 1478.14 542.08L1543.52 646.902C1549.07 655.806 1545.81 666.501 1536.24 670.79L1102.41 865.101Z" fill="url(#paint0_linear_1074_12163)" fill-opacity="0.16"/>
<path d="M1850.63 87.914C1864.21 81.8348 1881.15 91.9546 1880.73 105.886L1872.43 378.042C1872.24 384.217 1868.46 389.618 1862.44 392.312L1611.48 504.719C1605.57 507.366 1598.32 507.032 1592.24 503.832L1456.29 432.208C1452.89 430.413 1450.06 427.822 1448.13 424.74L1381.87 318.498C1376.31 309.594 1379.57 298.899 1389.15 294.61L1850.63 87.914Z" fill="url(#paint1_linear_1074_12163)" fill-opacity="0.16"/>
<path d="M1922.35 192.572L1939.96 220.813L1712.14 322.854L1694.52 294.613L1922.35 192.572Z" fill="black"/>
<g opacity="0.77" filter="url(#filter0_f_1074_12163)">
<path d="M455 860.5C455 1113.72 249.723 1319 -3.5 1319C-256.723 1319 -462 1113.72 -462 860.5C-462 607.277 -256.723 402 -3.5 402C249.723 402 455 607.277 455 860.5Z" fill="url(#paint2_linear_1074_12163)"/>
</g>
<g opacity="0.95">
<g opacity="0.56" filter="url(#filter1_f_1074_12163)">
<path d="M495.934 497.275C657.318 361.217 692.84 540.045 763.156 623.449C833.471 706.852 631.663 884.296 470.279 1020.35C69.2018 1342.53 845.22 1403.06 -102.62 1348.18C-172.935 1264.77 334.551 633.334 495.934 497.275Z" fill="#5FFBE8" fill-opacity="0.86"/>
</g>
<g opacity="0.45">
<g filter="url(#filter2_f_1074_12163)">
<path d="M2121.83 1329.71C1987.5 1565.3 1733.56 1354.84 1482.75 1427.16C1308.37 1427.16 1076.8 1301.16 1211.13 1065.57C1345.45 829.976 1659.36 785.304 1790.32 859.974C1921.28 934.644 2256.15 1094.12 2121.83 1329.71Z" fill="#516DFF" fill-opacity="0.5"/>
</g>
<g filter="url(#filter3_f_1074_12163)">
<path d="M1183.35 655.513C1272.57 744.732 1377.16 1006.22 1238.31 1145.07C1099.46 1283.92 927.797 1401.01 577.486 1354.33C361.042 1404.08 631.539 884.228 770.389 745.378C909.24 606.527 1094.13 566.293 1183.35 655.513Z" fill="#65FF90"/>
</g>
<g filter="url(#filter4_f_1074_12163)">
<path d="M1491.29 822.667C1698.17 981.453 1572.69 1078.93 1438.44 1213.18C1304.2 1347.43 1374.02 1237.9 1138.6 1314.33C997.039 1379.98 909.271 1252.02 1043.52 1117.77C1177.77 983.527 1356.07 740.903 1491.29 822.667Z" fill="#B78CFF"/>
</g>
</g>
<path d="M1946.84 752.668C1966.76 732.745 1999.07 732.745 2018.99 752.668V752.668C2038.91 772.592 2038.91 804.894 2018.99 824.818L715.057 2128.75C695.133 2148.68 662.83 2148.68 642.907 2128.75V2128.75C622.983 2108.83 622.983 2076.53 642.907 2056.6L1946.84 752.668Z" fill="#050C09" fill-opacity="0.25"/>
<path d="M1138.44 -379.933C1160.61 -402.11 1171.7 -413.199 1184.49 -417.353C1195.74 -421.008 1207.85 -421.008 1219.1 -417.353C1231.88 -413.199 1242.97 -402.11 1265.15 -379.933L1375.65 -269.431C1397.83 -247.254 1408.92 -236.166 1413.07 -223.379C1416.73 -212.132 1416.73 -200.017 1413.07 -188.769C1408.92 -175.983 1397.83 -164.894 1375.65 -142.718L-692.427 1925.36C-714.604 1947.54 -725.693 1958.63 -738.479 1962.78C-749.727 1966.44 -761.842 1966.44 -773.089 1962.78C-785.876 1958.63 -796.964 1947.54 -819.141 1925.36L-929.643 1814.86C-951.82 1792.68 -962.909 1781.59 -967.063 1768.81C-970.718 1757.56 -970.718 1745.45 -967.063 1734.2C-962.909 1721.41 -951.82 1710.32 -929.643 1688.15L1138.44 -379.933Z" fill="#050C09" fill-opacity="0.25"/>
<path d="M2034.42 -491.44C2046.17 -503.194 2052.05 -509.071 2057.9 -512.993C2082.15 -529.238 2113.81 -529.238 2138.05 -512.993C2143.91 -509.071 2149.78 -503.194 2161.54 -491.44V-491.44C2173.29 -479.686 2179.17 -473.809 2183.09 -467.954C2199.34 -443.707 2199.34 -412.052 2183.09 -387.805C2179.17 -381.951 2173.29 -376.074 2161.54 -364.32L-513.758 2310.98C-525.512 2322.73 -531.389 2328.61 -537.244 2332.53C-561.491 2348.77 -593.146 2348.77 -617.393 2332.53C-623.247 2328.61 -629.124 2322.73 -640.878 2310.98V2310.98C-652.632 2299.22 -658.509 2293.34 -662.432 2287.49C-678.676 2263.24 -678.676 2231.59 -662.431 2207.34C-658.509 2201.49 -652.632 2195.61 -640.878 2183.86L2034.42 -491.44Z" fill="#050C09" fill-opacity="0.25"/>
</g>
<g opacity="0.65" filter="url(#filter5_f_1074_12163)">
<path d="M2640 508.5C2640 825.788 2382.79 1083 2065.5 1083C1748.21 1083 1491 825.788 1491 508.5C1491 191.212 1748.21 -66 2065.5 -66C2382.79 -66 2640 191.212 2640 508.5Z" fill="url(#paint3_linear_1074_12163)" fill-opacity="0.81"/>
</g>
<defs>
<filter id="filter0_f_1074_12163" x="-1362" y="-498" width="2717" height="2717" filterUnits="userSpaceOnUse" color-interpolation-filters="sRGB">
<feFlood flood-opacity="0" result="BackgroundImageFix"/>
<feBlend mode="normal" in="SourceGraphic" in2="BackgroundImageFix" result="shape"/>
<feGaussianBlur stdDeviation="450" result="effect1_foregroundBlur_1074_12163"/>
</filter>
<filter id="filter1_f_1074_12163" x="-345.263" y="211.797" width="1358.81" height="1390.33" filterUnits="userSpaceOnUse" color-interpolation-filters="sRGB">
<feFlood flood-opacity="0" result="BackgroundImageFix"/>
<feBlend mode="normal" in="SourceGraphic" in2="BackgroundImageFix" result="shape"/>
<feGaussianBlur stdDeviation="118" result="effect1_foregroundBlur_1074_12163"/>
</filter>
<filter id="filter2_f_1074_12163" x="934.989" y="590.865" width="1454.04" height="1090.2" filterUnits="userSpaceOnUse" color-interpolation-filters="sRGB">
<feFlood flood-opacity="0" result="BackgroundImageFix"/>
<feBlend mode="normal" in="SourceGraphic" in2="BackgroundImageFix" result="shape"/>
<feGaussianBlur stdDeviation="118" result="effect1_foregroundBlur_1074_12163"/>
</filter>
<filter id="filter3_f_1074_12163" x="260.48" y="372.048" width="1281.25" height="1228.71" filterUnits="userSpaceOnUse" color-interpolation-filters="sRGB">
<feFlood flood-opacity="0" result="BackgroundImageFix"/>
<feBlend mode="normal" in="SourceGraphic" in2="BackgroundImageFix" result="shape"/>
<feGaussianBlur stdDeviation="118" result="effect1_foregroundBlur_1074_12163"/>
</filter>
<filter id="filter4_f_1074_12163" x="740.936" y="570.212" width="1095.98" height="997.858" filterUnits="userSpaceOnUse" color-interpolation-filters="sRGB">
<feFlood flood-opacity="0" result="BackgroundImageFix"/>
<feBlend mode="normal" in="SourceGraphic" in2="BackgroundImageFix" result="shape"/>
<feGaussianBlur stdDeviation="118" result="effect1_foregroundBlur_1074_12163"/>
</filter>
<filter id="filter5_f_1074_12163" x="591" y="-966" width="2949" height="2949" filterUnits="userSpaceOnUse" color-interpolation-filters="sRGB">
<feFlood flood-opacity="0" result="BackgroundImageFix"/>
<feBlend mode="normal" in="SourceGraphic" in2="BackgroundImageFix" result="shape"/>
<feGaussianBlur stdDeviation="450" result="effect1_foregroundBlur_1074_12163"/>
</filter>
<linearGradient id="paint0_linear_1074_12163" x1="997.502" y1="759.186" x2="1236.31" y2="734.243" gradientUnits="userSpaceOnUse">
<stop stop-color="white"/>
<stop offset="1" stop-color="white" stop-opacity="0"/>
</linearGradient>
<linearGradient id="paint1_linear_1074_12163" x1="1957.19" y1="195.031" x2="1487.57" y2="487.959" gradientUnits="userSpaceOnUse">
<stop stop-color="white"/>
<stop offset="1" stop-color="#5F5F5F" stop-opacity="0.98"/>
</linearGradient>
<linearGradient id="paint2_linear_1074_12163" x1="-3.5" y1="402" x2="-3.5" y2="1319" gradientUnits="userSpaceOnUse">
<stop stop-color="#48C9F2"/>
<stop offset="1" stop-color="#4C81FF" stop-opacity="0.56"/>
</linearGradient>
<linearGradient id="paint3_linear_1074_12163" x1="2065.5" y1="-66" x2="2065.5" y2="1083" gradientUnits="userSpaceOnUse">
<stop stop-color="#00FFA3"/>
<stop offset="1" stop-color="#00FFA3" stop-opacity="0"/>
</linearGradient>
</defs>
</svg>
