<svg width="52" height="41" viewBox="0 0 52 41" fill="none" xmlns="http://www.w3.org/2000/svg">
<path d="M41.974 1.10122C43.048 0.620069 44.3888 1.42086 44.3552 2.52341L43.9763 14.9509C43.9614 15.4396 43.6625 15.8671 43.1864 16.0804L31.1663 21.4653C30.6986 21.6748 30.1248 21.6484 29.6441 21.3951L23.2657 18.0339C22.9962 17.8919 22.7722 17.6869 22.6201 17.443L19.6764 12.7226C19.237 12.018 19.4951 11.1715 20.2529 10.832L41.974 1.10122Z" fill="#3BB078"/>
<rect width="1.66817" height="12.5099" transform="matrix(0.529156 0.848524 -0.912607 0.408839 46.4692 5.94336)" fill="#161616"/>
<path d="M9.92933 39.8988C8.8553 40.3799 7.51451 39.5791 7.54812 38.4766L7.92095 26.2467C7.93585 25.7579 8.23483 25.3305 8.7109 25.1172L20.561 19.8085C21.0288 19.5989 21.6025 19.6254 22.0832 19.8786L28.3667 23.1898C28.6362 23.3318 28.8602 23.5368 29.0123 23.7807L31.9061 28.4211C32.3456 29.1257 32.0874 29.9722 31.3296 30.3117L9.92933 39.8988Z" fill="#3BB078"/>
<rect width="1.64723" height="12.3528" transform="matrix(-0.529156 -0.848524 0.912607 -0.408839 5.45947 35.1318)" fill="#161616"/>
</svg>
