<svg width="81" height="48" viewBox="0 0 81 48" fill="none" xmlns="http://www.w3.org/2000/svg">
<circle cx="24.5" cy="24" r="24" fill="black"/>
<path fill-rule="evenodd" clip-rule="evenodd" d="M34.6433 16.0771C34.4894 16.1452 34.3234 16.1805 34.1555 16.1806H9.11377C8.99434 16.1805 8.87751 16.1452 8.7776 16.0789C8.67769 16.0126 8.59904 15.9182 8.55127 15.8072C8.50349 15.6963 8.48868 15.5737 8.50863 15.4544C8.52859 15.3351 8.58245 15.2242 8.66362 15.1354L13.9403 9.39586C14.0545 9.27119 14.1929 9.17171 14.3468 9.10363C14.5006 9.03554 14.6667 9.00031 14.8346 9.00013H39.8763C39.9967 8.99761 40.1154 9.03127 40.2171 9.09687C40.3187 9.16248 40.3992 9.2571 40.4478 9.36882C40.4967 9.48055 40.5116 9.6044 40.491 9.72477C40.4704 9.84515 40.4153 9.95668 40.3324 10.0453L35.0498 15.7849C34.9355 15.9096 34.7972 16.0091 34.6433 16.0771ZM35.0498 20.304C34.9351 20.1799 34.7967 20.0809 34.6429 20.0128C34.4891 19.9448 34.3232 19.9092 34.1555 19.9083H9.11377C8.99434 19.9084 8.87751 19.9437 8.7776 20.0101C8.67769 20.0764 8.59904 20.1708 8.55127 20.2817C8.50349 20.3926 8.48868 20.5152 8.50863 20.6346C8.52859 20.7539 8.58245 20.8648 8.66362 20.9535L13.9403 26.6961C14.0549 26.8202 14.1934 26.9193 14.3472 26.9874C14.501 27.0554 14.6668 27.0909 14.8346 27.0918H39.8763C39.9956 27.0912 40.1118 27.0554 40.2114 26.9889C40.311 26.9223 40.3891 26.8279 40.4365 26.7171C40.4839 26.6063 40.4985 26.4839 40.4782 26.3648C40.4582 26.2458 40.4046 26.1352 40.3235 26.0466L35.0498 20.304ZM40.3324 31.8647L35.0498 37.6043C34.9355 37.7289 34.7972 37.8284 34.6433 37.8965C34.4894 37.9646 34.3234 37.9998 34.1555 38H9.11377C8.99434 37.9999 8.87751 37.9646 8.7776 37.8983C8.67769 37.832 8.59904 37.7376 8.55127 37.6266C8.50349 37.5157 8.48868 37.3931 8.50863 37.2738C8.52859 37.1544 8.58245 37.0436 8.66362 36.9548L13.9403 31.2152C14.0545 31.0906 14.1929 30.9911 14.3468 30.923C14.5006 30.8549 14.6667 30.8197 14.8346 30.8195H39.8763C39.9967 30.817 40.1154 30.8507 40.2171 30.9163C40.3187 30.9819 40.3992 31.0765 40.4478 31.1882C40.4967 31.2999 40.5116 31.4238 40.491 31.5442C40.4704 31.6646 40.4153 31.7761 40.3324 31.8647Z" fill="url(#paint0_linear_1483_16498)"/>
<circle cx="56.5" cy="24" r="24" fill="#2775CA"/>
<path d="M52.5889 38.2592C52.5889 38.7809 52.2333 38.9548 51.7 38.9548C45.1222 36.8681 40.5 30.9557 40.5 24C40.5 17.0443 45.1222 11.1319 51.7 9.04523C52.2333 8.87134 52.5889 9.21913 52.5889 9.74081V10.9581C52.5889 11.3058 52.4111 11.6536 52.0556 11.8275C46.9 13.7403 43.3444 18.4354 43.3444 24C43.3444 29.5646 47.0778 34.4336 52.0556 36.1725C52.4111 36.3464 52.5889 36.6942 52.5889 37.0419V38.2592Z" fill="white"/>
<path d="M57.9223 33.9118C57.9223 34.2596 57.5667 34.6074 57.2112 34.6074H55.7889C55.4334 34.6074 55.0778 34.2596 55.0778 33.9118V31.8251C52.2334 31.4773 50.8112 29.9123 50.2778 27.6517C50.2778 27.3039 50.4556 26.9561 50.8112 26.9561H52.4112C52.7667 26.9561 52.9445 27.13 53.1223 27.4778C53.4778 28.6951 54.1889 29.7384 56.5001 29.7384C58.2778 29.7384 59.5223 28.869 59.5223 27.4778C59.5223 26.0867 58.8112 25.565 56.3223 25.2172C52.5889 24.6955 50.8112 23.6522 50.8112 20.696C50.8112 18.4354 52.5889 16.6965 55.0778 16.3487V14.262C55.0778 13.9142 55.4334 13.5664 55.7889 13.5664H57.2112C57.5667 13.5664 57.9223 13.9142 57.9223 14.262V16.3487C60.0556 16.6965 61.4778 17.9137 61.8334 19.8265C61.8334 20.1743 61.6556 20.5221 61.3001 20.5221H59.8778C59.5223 20.5221 59.3445 20.3482 59.1667 20.0004C58.8112 18.7832 57.9223 18.2615 56.3223 18.2615C54.5445 18.2615 53.6556 19.131 53.6556 20.3482C53.6556 21.5655 54.1889 22.261 56.8556 22.6088C60.5889 23.1305 62.3667 24.1739 62.3667 27.13C62.3667 29.3906 60.5889 31.3035 57.9223 31.8251V33.9118Z" fill="white"/>
<path d="M61.3 38.9549C60.7667 39.1288 60.4111 38.781 60.4111 38.2594V37.0421C60.4111 36.6943 60.5889 36.3466 60.9445 36.1727C66.1 34.2598 69.6556 29.5647 69.6556 24.0002C69.6556 18.4356 65.9222 13.5666 60.9445 11.8277C60.5889 11.6538 60.4111 11.306 60.4111 10.9582V9.74098C60.4111 9.2193 60.7667 9.04541 61.3 9.04541C67.7 11.1321 72.5 17.0445 72.5 24.0002C72.5 30.9559 67.8778 36.8682 61.3 38.9549Z" fill="white"/>
<defs>
<linearGradient id="paint0_linear_1483_16498" x1="27.7505" y1="50.59" x2="50.9149" y2="18.3691" gradientUnits="userSpaceOnUse">
<stop offset="0.08" stop-color="#9945FF"/>
<stop offset="0.3" stop-color="#8752F3"/>
<stop offset="0.5" stop-color="#5497D5"/>
<stop offset="0.6" stop-color="#43B4CA"/>
<stop offset="0.72" stop-color="#28E0B9"/>
<stop offset="0.97" stop-color="#19FB9B"/>
</linearGradient>
</defs>
</svg>
