<svg width="96" height="95" viewBox="0 0 96 95" fill="none" xmlns="http://www.w3.org/2000/svg">
<circle cx="48.4245" cy="47.4748" r="47.4748" fill="#647BFF"/>
<path d="M57.3416 25.3316C64.6823 25.3316 69.6158 30.4839 69.6158 38.1518V55.8469C69.6158 63.5148 64.6823 68.6649 57.3395 68.6649H38.5588C31.216 68.6649 26.2825 63.5148 26.2825 55.8469V38.1518C26.2825 30.4839 31.216 25.3316 38.5588 25.3316H57.3416ZM41.1046 41.3628C37.9976 41.3628 35.4691 43.8913 35.4691 46.9983C35.4691 50.1074 37.9976 52.6359 41.1046 52.6359C43.644 52.6359 45.7716 50.9373 46.4736 48.6233H51.0496V51.0109C51.0496 51.9079 51.7776 52.6359 52.6746 52.6359C53.5716 52.6359 54.2996 51.9079 54.2996 51.0109V48.6233H57.1813V51.0109C57.1813 51.9079 57.9093 52.6359 58.8063 52.6359C59.7033 52.6359 60.4313 51.9079 60.4313 51.0109V46.9983C60.4313 46.1013 59.7033 45.3733 58.8063 45.3733H46.4736C45.7716 43.0614 43.644 41.3628 41.1046 41.3628ZM41.1049 44.6126C42.42 44.6126 43.4925 45.6829 43.4925 47.0002C43.4925 48.3154 42.42 49.3857 41.1049 49.3857C39.7897 49.3857 38.7172 48.3154 38.7172 47.0002C38.7172 45.6829 39.7897 44.6126 41.1049 44.6126Z" fill="white"/>
</svg>
