<svg width="96" height="95" viewBox="0 0 96 95" fill="none" xmlns="http://www.w3.org/2000/svg">
<circle cx="48.3235" cy="47.4748" r="47.4748" fill="#111E38"/>
<path d="M48.2492 20.7581C56.3046 20.7581 62.7863 27.1975 62.7863 35.1474V39.2363C67.3075 40.6699 70.6017 44.8278 70.6017 49.7938V62.9589C70.6017 69.1068 65.5844 74.0914 59.3988 74.0914H37.1823C30.994 74.0914 25.9767 69.1068 25.9767 62.9589V49.7938C25.9767 44.8278 29.2735 40.6699 33.7921 39.2363V35.1474C33.8187 27.1975 40.3004 20.7581 48.2492 20.7581ZM48.2758 51.1161C46.9955 51.1161 45.9552 52.1496 45.9552 53.4216V59.3046C45.9552 60.603 46.9955 61.6365 48.2758 61.6365C49.5829 61.6365 50.6231 60.603 50.6231 59.3046V53.4216C50.6231 52.1496 49.5829 51.1161 48.2758 51.1161ZM48.3025 25.3955C42.8878 25.3955 38.4866 29.7415 38.4599 35.0944V38.6613H58.1184V35.1474C58.1184 29.768 53.7173 25.3955 48.3025 25.3955Z" fill="white"/>
</svg>
