<svg width="96" height="96" viewBox="0 0 96 96" fill="none" xmlns="http://www.w3.org/2000/svg">
<circle cx="48.374" cy="48.4244" r="47.4748" fill="#FF6B00"/>
<path d="M69.9715 49.7839C70.1335 49.875 70.166 50.0682 70.1724 50.1419L70.1741 50.1712L69.994 61.7914C69.994 66.4267 66.4025 70.2066 61.8802 70.4383L61.4397 70.4496H34.3361C29.7565 70.4496 26.0219 66.8145 25.793 62.2372L25.7819 61.7914L25.6243 50.1712C25.6243 50.1712 25.6243 49.8978 25.8269 49.7839C26.007 49.6699 26.2321 49.8067 26.2546 49.8294C30.8019 52.8826 36.2721 54.9104 42.0125 55.7535C42.8229 55.8674 43.6333 55.3433 43.8584 54.5231C44.3227 52.7715 45.7565 51.5807 47.5105 51.4386L47.8654 51.4244H47.9329C49.8464 51.4244 51.4447 52.6547 51.9399 54.5231C52.1651 55.3433 52.9755 55.8674 53.7859 55.7535C59.5262 54.9104 64.9965 52.8826 69.5437 49.8294C69.5437 49.8294 69.5888 49.8067 69.6338 49.7839C69.7238 49.7383 69.8589 49.7155 69.9715 49.7839ZM47.8879 54.6826C47.0419 54.6826 46.3282 55.3335 46.2152 56.1616L46.1996 56.3914V59.3307C46.1996 60.2876 46.965 61.0395 47.8879 61.0395C48.7546 61.0395 49.451 60.4077 49.5611 59.5653L49.5763 59.3307V56.3914C49.5763 55.4573 48.8334 54.6826 47.8879 54.6826ZM50.7919 25.4496C54.1686 25.4496 56.9374 28.0243 57.3652 31.328H61.8224C66.5497 31.328 70.3992 35.2242 70.3992 40.009C70.3992 40.009 70.2641 42.0346 70.2191 44.8553C70.2146 45.0786 70.1065 45.2973 69.9287 45.4295C68.8459 46.2292 67.8554 46.89 67.7654 46.9356C64.0285 49.4419 59.6861 51.2054 55.06 52.0826C54.7584 52.1419 54.4612 51.9846 54.3081 51.7158C53.0115 49.4692 50.5893 48.0064 47.8879 48.0064C45.2046 48.0064 42.7599 49.4533 41.4249 51.7021C41.2696 51.9664 40.977 52.1191 40.6776 52.0621C36.0898 51.1826 31.7473 49.4214 28.033 46.9583L25.8719 45.4545C25.6918 45.3406 25.5793 45.1356 25.5793 44.9077C25.5117 43.7457 25.3992 40.009 25.3992 40.009C25.3992 35.2242 29.2486 31.328 33.976 31.328H38.4107C38.8384 28.0243 41.6073 25.4496 44.984 25.4496H50.7919ZM50.7919 28.8673H44.984C43.4757 28.8673 42.1926 29.9154 41.8324 31.328H53.9434C53.5833 29.9154 52.3001 28.8673 50.7919 28.8673Z" fill="white"/>
</svg>
