<svg width="86" height="96" viewBox="0 0 86 96" fill="none" xmlns="http://www.w3.org/2000/svg">
<circle cx="38.4748" cy="48.4244" r="47.4748" fill="#7650FD"/>
<path d="M48.16 27.6996C55.92 27.6996 60.5 32.1649 60.5 39.8086H50.98V39.8866C46.5617 39.8866 42.98 43.3787 42.98 47.6863C42.98 51.994 46.5617 55.4861 50.98 55.4861H60.5V56.188C60.5 63.7342 55.92 68.1996 48.16 68.1996H27.84C20.08 68.1996 15.5 63.7342 15.5 56.188V39.7111C15.5 32.1649 20.08 27.6996 27.84 27.6996H48.16ZM58.82 43.1625C59.7478 43.1625 60.5 43.8958 60.5 44.8005V50.4942C60.4892 51.3945 59.7433 52.1217 58.82 52.1322H51.16C48.9233 52.1615 46.9673 50.6684 46.46 48.5443C46.2059 47.2257 46.5626 45.8651 47.4344 44.8271C48.3062 43.789 49.604 43.1798 50.98 43.1625H58.82ZM52.06 45.7949H51.32C50.8657 45.7897 50.4281 45.962 50.105 46.2734C49.7818 46.5848 49.6 47.0094 49.6 47.4524C49.5999 48.3817 50.3668 49.1381 51.32 49.1488H52.06C53.0099 49.1488 53.78 48.398 53.78 47.4719C53.78 46.5457 53.0099 45.7949 52.06 45.7949ZM38.86 36.4548H26.16C25.2178 36.4547 24.451 37.1937 24.44 38.1122C24.44 39.0416 25.2068 39.798 26.16 39.8086H38.86C39.8099 39.8086 40.58 39.0578 40.58 38.1317C40.58 37.2056 39.8099 36.4548 38.86 36.4548Z" fill="white"/>
</svg>
