<svg width="96" height="95" viewBox="0 0 96 95" fill="none" xmlns="http://www.w3.org/2000/svg">
<circle cx="48.374" cy="47.4748" r="47.4748" fill="#01D060"/>
<path d="M57.6644 24.4998C65.2919 24.4998 70.3994 29.8548 70.3994 37.8198V56.2045C70.3994 64.1448 65.2919 69.4998 57.6644 69.4998H38.1569C30.5294 69.4998 25.3994 64.1448 25.3994 56.2045V37.8198C25.3994 29.8548 30.5294 24.4998 38.1569 24.4998H57.6644ZM57.3044 40.2498C56.5394 39.4848 55.2794 39.4848 54.5144 40.2498L45.2219 49.5423L41.2844 45.6048C40.5194 44.8398 39.2594 44.8398 38.4944 45.6048C37.7294 46.3698 37.7294 47.6073 38.4944 48.3948L43.8494 53.7273C44.2319 54.1098 44.7269 54.2898 45.2219 54.2898C45.7394 54.2898 46.2344 54.1098 46.6169 53.7273L57.3044 43.0398C58.0694 42.2748 58.0694 41.0373 57.3044 40.2498Z" fill="white"/>
</svg>
