<svg width="96" height="96" viewBox="0 0 96 96" fill="none" xmlns="http://www.w3.org/2000/svg">
<circle cx="48.4245" cy="48.4244" r="47.4748" fill="#3BB078"/>
<path d="M48.3501 21.7076C56.4056 21.7076 62.8873 28.1471 62.8873 36.097V40.1859C67.4084 41.6195 70.7026 45.7773 70.7026 50.7434V63.9084C70.7026 70.0564 65.6853 75.041 59.4997 75.041H37.2832C31.0949 75.041 26.0776 70.0564 26.0776 63.9084V50.7434C26.0776 45.7773 29.3745 41.6195 33.893 40.1859V36.097C33.9197 28.1471 40.4014 21.7076 48.3501 21.7076ZM48.3768 52.0657C47.0965 52.0657 46.0562 53.0992 46.0562 54.3712V60.2541C46.0562 61.5526 47.0965 62.5861 48.3768 62.5861C49.6838 62.5861 50.7241 61.5526 50.7241 60.2541V54.3712C50.7241 53.0992 49.6838 52.0657 48.3768 52.0657ZM48.4035 26.3451C42.9887 26.3451 38.5876 30.691 38.5609 36.044V39.6109H58.2194V36.097C58.2194 30.7175 53.8182 26.3451 48.4035 26.3451Z" fill="white"/>
</svg>
