<svg width="20" height="20" viewBox="0 0 20 20" fill="none" xmlns="http://www.w3.org/2000/svg">
<path d="M15 1.6665H5C3.61667 1.6665 2.5 2.77484 2.5 4.1415V13.2332C2.5 14.5998 3.61667 15.7165 5 15.7165H5.63333C6.29167 15.7165 6.93333 15.9748 7.4 16.4415L8.825 17.8498C9.475 18.4915 10.525 18.4915 11.175 17.8498L12.6 16.4415C13.0667 15.9748 13.7083 15.7165 14.3667 15.7165H15C16.3833 15.7165 17.5 14.5998 17.5 13.2332V4.1415C17.5 2.77484 16.3833 1.6665 15 1.6665ZM10 4.62484C10.9 4.62484 11.625 5.35817 11.625 6.24984C11.625 7.13317 10.925 7.8415 10.0583 7.87484C10.025 7.87484 9.975 7.87484 9.93333 7.87484C9.05833 7.8415 8.36667 7.13317 8.36667 6.24984C8.375 5.35817 9.1 4.62484 10 4.62484ZM12.2917 12.2415C11.0333 13.0832 8.96667 13.0832 7.70833 12.2415C6.6 11.5082 6.6 10.2915 7.70833 9.54984C8.975 8.70817 11.0417 8.70817 12.2917 9.54984C13.4 10.2915 13.4 11.4998 12.2917 12.2415Z" fill="white"/>
</svg>
