<svg width="21" height="21" viewBox="0 0 21 21" fill="none" xmlns="http://www.w3.org/2000/svg">
<path d="M10.8156 11.518L10.5058 11.5193C9.2181 11.5193 8.04415 11.4439 7.27887 11.3303L6.80298 11.2308C6.55093 11.1755 6.26395 11.1027 6.11745 11.0268C5.58156 10.749 5.25 10.2059 5.25 9.6246V9.57401C5.26253 9.19506 5.59505 8.39898 5.60662 8.39898C6.1441 7.11799 7.76625 4.64665 8.92272 3.50525L9.26991 3.17356C9.36401 3.08671 9.47538 2.98912 9.56219 2.92854C9.83014 2.72618 10.1617 2.625 10.4933 2.625C10.8634 2.625 11.2075 2.73859 11.4889 2.95336L11.8567 3.29414L11.9351 3.37049C13.058 4.40616 14.8941 7.11035 15.456 8.52497L15.5379 8.73855C15.63 8.99556 15.7399 9.35566 15.75 9.57401C15.75 9.85178 15.6854 10.1171 15.5582 10.3701C15.3799 10.686 15.0984 10.938 14.7669 11.0774C14.5375 11.1662 13.8484 11.3055 13.8358 11.3055C13.141 11.4333 12.0445 11.5074 10.8156 11.518ZM10.4996 18.375C9.76614 18.375 9.17145 17.7861 9.17145 17.0597L9.45771 13.8228C9.45771 13.253 9.92421 12.791 10.4996 12.791C11.076 12.791 11.5415 13.253 11.5415 13.8228L11.8278 17.0597C11.8278 17.7861 11.2331 18.375 10.4996 18.375Z" fill="#39FFA0"/>
</svg>
