<svg width="37" height="44" viewBox="0 0 37 44" fill="none" xmlns="http://www.w3.org/2000/svg">
<circle cx="32.2711" cy="4" r="4" fill="#F7931A"/>
<path fill-rule="evenodd" clip-rule="evenodd" d="M15.7575 38.159C16.5345 39.0245 17.532 39.5 18.567 39.5H18.5685C19.608 39.5 20.61 39.0245 21.3885 38.1575C21.8055 37.697 22.5165 37.6595 22.977 38.075C23.439 38.4905 23.4765 39.203 23.061 39.6635C21.849 41.009 20.2545 41.75 18.5685 41.75H18.5655C16.884 41.7485 15.2925 41.0075 14.085 39.662C13.6695 39.2015 13.707 38.489 14.169 38.075C14.631 37.658 15.342 37.6955 15.7575 38.159ZM18.6417 9.5C25.3092 9.5 29.7882 14.693 29.7882 19.5425C29.7882 22.037 30.4227 23.0945 31.0962 24.2165C31.7622 25.3235 32.5167 26.5805 32.5167 28.9565C31.9932 35.027 25.6557 35.522 18.6417 35.522C11.6277 35.522 5.28866 35.027 4.77114 29.0525C4.76666 26.5805 5.52116 25.3235 6.18716 24.2165L6.42227 23.8207C7.00117 22.8258 7.49516 21.7435 7.49516 19.5425C7.49516 14.693 11.9742 9.5 18.6417 9.5ZM18.6417 11.75C13.3992 11.75 9.74516 15.857 9.74516 19.5425C9.74516 22.661 8.87966 24.1025 8.11466 25.3745C7.50116 26.396 7.01666 27.203 7.01666 28.9565C7.26716 31.7855 9.13466 33.272 18.6417 33.272C28.0962 33.272 30.0222 31.7195 30.2712 28.859C30.2667 27.203 29.7822 26.396 29.1687 25.3745C28.4037 24.1025 27.5382 22.661 27.5382 19.5425C27.5382 15.857 23.8842 11.75 18.6417 11.75Z" fill="white"/>
</svg>
