<svg width="25" height="25" viewBox="0 0 25 25" fill="none" xmlns="http://www.w3.org/2000/svg">
<circle opacity="0.2" cx="12.5" cy="12.5" r="11.875" stroke="white" stroke-width="1.25"/>
<path opacity="0.3" fill-rule="evenodd" clip-rule="evenodd" d="M8.25444 7.37056C8.01036 7.12648 7.61464 7.12648 7.37056 7.37056C7.12648 7.61464 7.12648 8.01036 7.37056 8.25444L11.5267 12.4106L7.37058 16.5668C7.1265 16.8108 7.1265 17.2066 7.37058 17.4507C7.61466 17.6947 8.01039 17.6947 8.25446 17.4507L12.4106 13.2945L16.5668 17.4507C16.8108 17.6947 17.2066 17.6947 17.4507 17.4507C17.6947 17.2066 17.6947 16.8108 17.4507 16.5668L13.2945 12.4106L17.4507 8.25444C17.6948 8.01036 17.6948 7.61464 17.4507 7.37056C17.2066 7.12648 16.8109 7.12648 16.5668 7.37056L12.4106 11.5267L8.25444 7.37056Z" fill="white"/>
</svg>
