<svg width="21" height="16" viewBox="0 0 21 16" fill="none" xmlns="http://www.w3.org/2000/svg">
<path opacity="0.8" d="M17.9358 1.57891C20.21 4.94637 21.3332 8.74476 20.9133 13.1176C20.9116 13.1361 20.902 13.1531 20.8869 13.1642C19.1646 14.4378 17.496 15.2107 15.8508 15.7233C15.838 15.7272 15.8243 15.727 15.8116 15.7227C15.799 15.7183 15.7879 15.7102 15.7801 15.6992C15.4 15.1666 15.0547 14.6051 14.7521 14.0155C14.7347 13.9807 14.7506 13.9389 14.7863 13.9252C15.3348 13.7171 15.8564 13.4677 16.358 13.1724C16.3975 13.149 16.4001 13.092 16.3636 13.0646C16.2571 12.985 16.1516 12.9014 16.0507 12.8177C16.0318 12.8023 16.0064 12.7992 15.985 12.8096C12.728 14.3243 9.16023 14.3243 5.86481 12.8096C5.8434 12.8 5.81798 12.8033 5.7996 12.8185C5.69894 12.9021 5.59322 12.985 5.48775 13.0646C5.45125 13.092 5.45424 13.149 5.49403 13.1724C5.9957 13.4621 6.51726 13.7171 7.06496 13.9262C7.10045 13.9399 7.11731 13.9807 7.09969 14.0155C6.80369 14.6059 6.45833 15.1674 6.0712 15.7C6.05433 15.7215 6.02664 15.7314 6.00046 15.7233C4.36306 15.2107 2.69447 14.4378 0.97221 13.1642C0.957878 13.1531 0.94755 13.1354 0.946033 13.1169C0.595149 9.3344 1.31028 5.50457 3.92079 1.57816C3.92711 1.56779 3.93668 1.55965 3.94773 1.55484C5.23226 0.961158 6.60836 0.524366 8.04667 0.274945C8.07285 0.270899 8.09902 0.283039 8.1126 0.306392C8.29031 0.623258 8.49345 1.02962 8.63091 1.3617C10.147 1.12847 11.6867 1.12847 13.2345 1.3617C13.3719 1.0367 13.568 0.623258 13.745 0.306392C13.7513 0.2948 13.7611 0.285526 13.7729 0.279877C13.7847 0.274229 13.7981 0.272501 13.8109 0.274945C15.25 0.525125 16.6261 0.961917 17.9096 1.55484C17.9209 1.55965 17.9302 1.56779 17.9358 1.57891ZM9.40164 8.77064C9.41749 7.65244 8.60798 6.72718 7.59183 6.72718C6.58395 6.72718 5.78224 7.64435 5.78224 8.77064C5.78224 9.89668 6.5998 10.8138 7.59183 10.8138C8.59993 10.8138 9.40164 9.89668 9.40164 8.77064ZM16.0927 8.77064C16.1086 7.65244 15.2991 6.72718 14.2832 6.72718C13.275 6.72718 12.4733 7.64435 12.4733 8.77064C12.4733 9.89668 13.2909 10.8138 14.2832 10.8138C15.2991 10.8138 16.0927 9.89668 16.0927 8.77064Z" fill="white"/>
</svg>
