<svg width="45" height="45" viewBox="0 0 45 45" fill="none" xmlns="http://www.w3.org/2000/svg">
<circle opacity="0.6" cx="22.5" cy="22.5" r="21.375" stroke="white" stroke-width="2.25"/>
<path opacity="1.0" d="M28 24.0607C28.5858 24.0607 29.0607 23.5858 29.0607 23C29.0607 22.4142 28.5858 21.9393 28 21.9393V24.0607ZM15.25 22.25C14.8358 22.6642 14.8358 23.3358 15.25 23.75L22 30.5C22.4142 30.9142 23.0858 30.9142 23.5 30.5C23.9142 30.0858 23.9142 29.4142 23.5 29L17.5 23L23.5 17C23.9142 16.5858 23.9142 15.9142 23.5 15.5C23.0858 15.0858 22.4142 15.0858 22 15.5L15.25 22.25ZM28 21.9393H16V24.0607H28V21.9393Z" fill="white"/>
</svg>
