<svg width="72" height="73" viewBox="0 0 72 73" fill="none" xmlns="http://www.w3.org/2000/svg">
<path d="M36 6.5C19.44 6.5 6 19.94 6 36.5C6 53.06 19.44 66.5 36 66.5C52.56 66.5 66 53.06 66 36.5C66 19.94 52.56 6.5 36 6.5ZM19.8 34.19C20.31 30.62 21.9 27.41 24.39 24.89C30.39 18.92 39.84 18.59 46.26 23.81V20.96C46.26 19.73 47.28 18.71 48.51 18.71C49.74 18.71 50.76 19.73 50.76 20.96V28.97C50.76 30.2 49.74 31.22 48.51 31.22H40.5C39.27 31.22 38.25 30.2 38.25 28.97C38.25 27.74 39.27 26.72 40.5 26.72H42.75C38.1 23.48 31.68 23.93 27.54 28.07C25.74 29.87 24.6 32.21 24.21 34.82C24.06 35.93 23.1 36.74 21.99 36.74C21.87 36.74 21.78 36.74 21.66 36.71C20.49 36.56 19.62 35.42 19.8 34.19ZM47.61 48.11C44.4 51.32 40.2 52.91 36 52.91C32.34 52.91 28.71 51.62 25.71 49.19V52.01C25.71 53.24 24.69 54.26 23.46 54.26C22.23 54.26 21.21 53.24 21.21 52.01V44C21.21 42.77 22.23 41.75 23.46 41.75H31.47C32.7 41.75 33.72 42.77 33.72 44C33.72 45.23 32.7 46.25 31.47 46.25H29.22C33.87 49.49 40.29 49.04 44.43 44.9C46.23 43.1 47.37 40.76 47.76 38.15C47.94 36.92 49.05 36.05 50.31 36.23C51.54 36.41 52.38 37.55 52.23 38.78C51.69 42.41 50.1 45.62 47.61 48.11Z" fill="url(#paint0_linear_1414_12496)"/>
<defs>
<linearGradient id="paint0_linear_1414_12496" x1="7.88153" y1="62.5" x2="70.2129" y2="48.089" gradientUnits="userSpaceOnUse">
<stop stop-color="#4CFFFF" stop-opacity="0.56"/>
<stop offset="0.313252" stop-color="#80FEE3"/>
<stop offset="0.436887" stop-color="#95FED8"/>
<stop offset="1" stop-color="#00FFA3"/>
</linearGradient>
</defs>
</svg>
