<svg width="33" height="32" viewBox="0 0 33 32" fill="none" xmlns="http://www.w3.org/2000/svg">
<g opacity="0.71">
<path opacity="0.8" fill-rule="evenodd" clip-rule="evenodd" d="M15.9231 2.66669C23.0831 2.66669 28.9071 8.49069 28.9071 15.6507C28.9071 19.0287 27.6107 22.1097 25.4893 24.422L29.6636 28.5876C30.0543 28.9783 30.0556 29.6103 29.665 30.001C29.4703 30.1983 29.213 30.2956 28.957 30.2956C28.7023 30.2956 28.4463 30.1983 28.2503 30.0036L24.0256 25.7907C21.8032 27.5705 18.9853 28.636 15.9231 28.636C8.76312 28.636 2.93778 22.8107 2.93778 15.6507C2.93778 8.49069 8.76312 2.66669 15.9231 2.66669ZM15.9231 4.66669C9.86578 4.66669 4.93778 9.59335 4.93778 15.6507C4.93778 21.708 9.86578 26.636 15.9231 26.636C21.9791 26.636 26.9071 21.708 26.9071 15.6507C26.9071 9.59335 21.9791 4.66669 15.9231 4.66669Z" fill="white"/>
</g>
</svg>
