<svg width="35" height="35" viewBox="0 0 35 35" fill="none" xmlns="http://www.w3.org/2000/svg">
<g opacity="0.72">
<path d="M17.5047 18.9606C18.4944 18.9606 19.2968 18.1583 19.2968 17.1685C19.2968 16.1788 18.4944 15.3765 17.5047 15.3765C16.515 15.3765 15.7126 16.1788 15.7126 17.1685C15.7126 18.1583 16.515 18.9606 17.5047 18.9606Z" stroke="white" stroke-miterlimit="10" stroke-linecap="round" stroke-linejoin="round"/>
<path d="M11.531 17.6938V16.6425C11.531 16.0212 12.0388 15.5075 12.666 15.5075C13.7472 15.5075 14.1892 14.7429 13.6456 13.8051C13.335 13.2674 13.5202 12.5685 14.0638 12.2579L15.0972 11.6665C15.5691 11.3858 16.1784 11.553 16.4592 12.0249L16.5249 12.1384C17.0625 13.0763 17.9466 13.0763 18.4902 12.1384L18.5559 12.0249C18.8367 11.553 19.446 11.3858 19.9179 11.6665L20.9513 12.2579C21.4949 12.5685 21.6801 13.2674 21.3695 13.8051C20.8259 14.7429 21.2679 15.5075 22.3491 15.5075C22.9704 15.5075 23.4841 16.0153 23.4841 16.6425V17.6938C23.4841 18.3151 22.9763 18.8288 22.3491 18.8288C21.2679 18.8288 20.8259 19.5934 21.3695 20.5313C21.6801 21.0749 21.4949 21.7678 20.9513 22.0784L19.9179 22.6698C19.446 22.9506 18.8367 22.7833 18.5559 22.3114L18.4902 22.1979C17.9526 21.2601 17.0685 21.2601 16.5249 22.1979L16.4592 22.3114C16.1784 22.7833 15.5691 22.9506 15.0972 22.6698L14.0638 22.0784C13.5202 21.7678 13.335 21.0689 13.6456 20.5313C14.1892 19.5934 13.7472 18.8288 12.666 18.8288C12.0388 18.8288 11.531 18.3151 11.531 17.6938Z" stroke="white" stroke-miterlimit="10" stroke-linecap="round" stroke-linejoin="round"/>
</g>
<rect x="0.836426" y="0.5" width="33.3365" height="33.3365" rx="16.6683" stroke="#BFBFBF"/>
</svg>
