<svg width="42" height="42" viewBox="0 0 42 42" fill="none" xmlns="http://www.w3.org/2000/svg">
<path d="M38.5 14.875C38.5 21.1575 33.4075 26.25 27.125 26.25C26.8275 26.25 26.5125 26.2325 26.215 26.215C25.7775 20.6675 21.3325 16.2225 15.785 15.785C15.7675 15.4875 15.75 15.1725 15.75 14.875C15.75 8.5925 20.8425 3.5 27.125 3.5C33.4075 3.5 38.5 8.5925 38.5 14.875Z" stroke="white" stroke-width="2" stroke-linecap="round" stroke-linejoin="round"/>
<path d="M26.25 27.125C26.25 33.4075 21.1575 38.5 14.875 38.5C8.5925 38.5 3.5 33.4075 3.5 27.125C3.5 20.8425 8.5925 15.75 14.875 15.75C15.1725 15.75 15.4875 15.7675 15.785 15.785C21.3325 16.2225 25.7775 20.6675 26.215 26.215C26.2325 26.5125 26.25 26.8275 26.25 27.125Z" stroke="white" stroke-width="2" stroke-linecap="round" stroke-linejoin="round"/>
<path d="M9.78249 3.5H5.25C4.2875 3.5 3.5 4.2875 3.5 5.25V9.78249C3.5 11.34 5.38999 12.1275 6.49249 11.025L11.025 6.49249C12.11 5.38999 11.34 3.5 9.78249 3.5Z" fill="white" stroke="white" stroke-width="2" stroke-linecap="round" stroke-linejoin="round"/>
<path d="M32.2175 38.5H36.75C37.7125 38.5 38.5 37.7125 38.5 36.75V32.2175C38.5 30.66 36.61 29.8725 35.5075 30.975L30.975 35.5075C29.89 36.61 30.66 38.5 32.2175 38.5Z" fill="white" stroke="white" stroke-width="2" stroke-linecap="round" stroke-linejoin="round"/>
</svg>
